<svg xmlns="http://www.w3.org/2000/svg" width="512" height="512" id="basketball">
  <g fill="none" fill-rule="evenodd">
    <path fill="#D28F52" d="M82.77 85.777c-95.232 94.565-95.232 247.885 0 342.45 95.232 94.564 249.634 94.564 344.866 0 95.232-94.565 95.232-247.885 0-342.45-95.232-94.564-249.634-94.564-344.866 0"></path>
    <path fill="#D28F52" d="M142.738 145.325c-85 84.404-94.063 215.582-27.335 310.04 95.133 66.26 227.237 57.261 312.229-27.143 85-84.396 94.07-215.574 27.334-310.04-95.125-66.26-227.228-57.26-312.228 27.143"></path>
    <path fill="#010202" d="M389.772 57.153c25.577 38.305 40.509 84.222 40.509 133.629 0 133.735-109.178 242.148-243.857 242.148-49.748 0-95.996-14.828-134.565-40.233 43.666 65.388 118.418 108.527 203.34 108.527 134.68 0 243.858-108.413 243.858-242.148 0-84.336-43.436-158.564-109.285-201.923" opacity=".3"></path>
    <path fill="#2E2E30" d="M255.201 26.345c-59.506 0-119.02 22.492-164.329 67.483C.264 183.8.264 330.2 90.872 420.175c90.617 89.981 238.042 89.981 328.659 0 90.608-89.974 90.608-236.374 0-326.347-45.309-44.991-104.823-67.483-164.33-67.483m0 484.07c-65.383 0-130.758-24.716-180.537-74.146-99.55-98.844-99.55-259.692 0-358.544 99.55-98.852 261.525-98.852 361.075 0 99.55 98.852 99.55 259.7 0 358.544-49.779 49.43-115.154 74.145-180.538 74.145"></path>
    <path fill="#2E2E30" d="M142.739 145.327h.076-.076Zm-19.097 301.86c92.297 63.126 216.415 51.903 295.89-27.007 79.475-78.925 90.785-202.173 27.197-293.816-92.305-63.135-216.423-51.904-295.882 27.014-79.483 78.917-90.785 202.165-27.205 293.809Zm131.553 63.498c-50.886 0-102.048-15.123-146.37-46a11.331 11.331 0 0 1-2.805-2.785c-71.267-100.878-59.232-237.398 28.61-324.625 87.836-87.211 225.327-99.17 326.924-28.41 1.085.759 2.033 1.7 2.797 2.785 71.267 100.87 59.232 237.398-28.61 324.625-49.512 49.164-114.803 74.41-180.546 74.41Z"></path>
    <path fill="#2E2E30" d="M427.635 439.607a11.468 11.468 0 0 1-8.108-3.33L74.667 93.826c-4.477-4.447-4.477-11.656 0-16.095 4.471-4.447 11.731-4.447 16.21 0l344.866 342.442a11.343 11.343 0 0 1 0 16.102 11.468 11.468 0 0 1-8.108 3.331M247.179 510.34c-2.239 0-4.493-.645-6.473-1.996-51.047-34.747-67.415-64.325-102.996-186.155C105.065 210.422 28.792 208.222 25.56 208.184c-6.305-.076-11.394-5.19-11.356-11.458.046-6.253 5.135-11.307 11.432-11.307h.008c3.912.008 96.447 1.556 134.082 130.427 36.085 123.559 50.933 144.45 93.941 173.725 5.22 3.551 6.557 10.638 2.973 15.821-2.224 3.218-5.808 4.948-9.46 4.948m251.693-249.916c-3.653 0-7.237-1.73-9.46-4.947-29.483-42.707-50.52-57.45-174.952-93.283-129.78-37.38-131.347-129.25-131.347-133.143-.008-6.283 5.128-11.382 11.455-11.39h.008c6.304 0 11.432 5.062 11.462 11.322.046 3.377 2.385 78.97 114.81 111.35 122.697 35.33 152.477 51.585 187.47 102.274 3.583 5.183 2.246 12.27-2.973 15.821a11.438 11.438 0 0 1-6.473 1.996"></path>
  </g>
</svg>