<svg xmlns="http://www.w3.org/2000/svg" viewBox="0 0 64 64" id="biotechnology">
  <path fill="#94daf0" d="M10,22V56c0,2.76,2.24,5,5,5h0c2.76,0,5-2.24,5-5V22H10Z"></path>
  <path fill="#f93" d="M20,37v19c0,1.38-.56,2.63-1.46,3.54-.91,.9-2.16,1.46-3.54,1.46-2.76,0-5-2.24-5-5v-8l1.91-3.82c.5-1,1.88-1.12,2.55-.23,.31,.41,.76,.6,1.2,.6,.56,0,1.12-.31,1.38-.89l2.96-6.66Z"></path>
  <rect width="18" height="4" x="6" y="18" fill="#94daf0" rx="2" ry="2"></rect>
  <path fill="#008744" d="M22.16,4h6c0,4.42-3.58,8-8,8h-6c0-4.42,3.58-8,8-8Z" transform="rotate(-12.45 21.159 8.013)"></path>
  <path fill="#008744" d="M3,6H7c4.42,0,8,3.58,8,8h-4c-4.42,0-8-3.58-8-8h0Z"></path>
  <polygon fill="#82aff9" points="46 23 40 23 37 28 40 33 46 33 49 28 46 23"></polygon>
  <polygon fill="#82aff9" points="53.61 39.72 47.62 39.95 44.81 45.06 47.99 49.94 53.99 49.72 56.8 44.61 53.61 39.72"></polygon>
  <polygon fill="#82aff9" points="44.81 45.06 38.81 45.28 36 50.39 39.19 55.28 45.18 55.05 47.99 49.94 44.81 45.06"></polygon>
  <path d="M21.26,13.1c4.85-1.07,7.92-5.88,6.85-10.73-.06-.26-.21-.48-.44-.63-.22-.14-.49-.19-.75-.13l-5.86,1.29c-3.23,.71-5.67,3.1-6.62,6.04-1.62-2.38-4.35-3.95-7.44-3.95H3c-.55,0-1,.45-1,1,0,4.96,4.04,9,9,9h3v2h-6c-1.65,0-3,1.35-3,3s1.35,3,3,3h1V56c0,3.31,2.69,6,6,6s6-2.69,6-6V29h15.43l2.71,4.51c.18,.3,.51,.49,.86,.49h6c.35,0,.68-.18,.86-.49l2.71-4.51h4.85l3.3,5.77-4.78,3.98-5.36,.2c-.35,.01-.67,.21-.84,.52l-2.54,4.61-4.87,.18-1.95-2.97c-.3-.46-.92-.59-1.38-.29-.46,.3-.59,.92-.29,1.38l1.93,2.94-2.52,4.58c-.18,.32-.16,.72,.04,1.03l3.19,4.88c.18,.28,.5,.45,.84,.45,.01,0,.02,0,.04,0l6-.23c.35-.01,.67-.21,.84-.52l2.54-4.61,5.43-.2c.35-.01,.67-.21,.84-.52l2.81-5.11c.18-.32,.16-.72-.04-1.03l-2.8-4.29,4.8-4c.37-.31,.47-.84,.23-1.26l-4-7c-.18-.31-.51-.5-.87-.5h-5.43l-2.71-4.51c-.18-.3-.51-.49-.86-.49h-6c-.35,0-.68,.18-.86,.49l-2.71,4.51h-15.43v-4h1c1.65,0,3-1.35,3-3s-1.35-3-3-3h-6v-2.74l5.26-1.16Zm.23-8.24l4.81-1.06c.25,3.41-2.04,6.59-5.47,7.35l-2.69,.59,2.88-2.33c.43-.35,.49-.98,.15-1.41-.35-.43-.98-.49-1.41-.15l-3.7,3c.35-2.87,2.46-5.34,5.44-6Zm-12.21,6.53l2.42,1.61h-.7c-3.52,0-6.44-2.61-6.93-6h2.93c3.13,0,5.79,2.07,6.68,4.92l-3.29-2.19c-.46-.31-1.08-.18-1.39,.28s-.18,1.08,.28,1.39ZM44.58,54.07l-4.86,.18-2.55-3.91,2.25-4.09,4.86-.18,2.55,3.91-2.25,4.09Zm11.05-9.42l-2.25,4.09-4.86,.18-2.55-3.91,2.25-4.09,4.86-.18,2.55,3.91Zm-15.07-20.65h4.87l2.4,4-2.4,4h-4.87l-2.4-4,2.4-4Zm-32.57-3c-.55,0-1-.45-1-1s.45-1,1-1h6v2h-6Zm6,2v19.48c-.31-.1-.63-.15-.97-.12-.87,.08-1.62,.59-2.02,1.38l-.02,.03V23h3Zm5,33c0,2.21-1.79,4-4,4s-4-1.79-4-4v-7.76l1.81-3.61c.11-.23,.32-.27,.41-.28,.08,0,.3,0,.45,.2,.1,.13,.22,.24,.34,.35v.1h.1c.51,.41,1.16,.61,1.85,.54,.89-.1,1.64-.65,2.01-1.47l1.04-2.35v14.29Zm0-19.21l-2.87,6.46c-.03,.08-.08,.13-.13,.17V23h3v13.79Zm3-17.79c.55,0,1,.45,1,1s-.45,1-1,1h-6v-2h6Z"></path>
  <path d="M33.61,39.72c.31,.46,.93,.58,1.39,.28s.58-.93,.28-1.39l-.89-1.34c-.31-.46-.93-.58-1.39-.28s-.58,.93-.28,1.39l.89,1.34Z"></path>
</svg>