<svg xmlns="http://www.w3.org/2000/svg" xml:space="preserve" enable-background="new 0 0 90 90" viewBox="0 0 90 90" id="geography">
  <path fill="#c9eaf9" d="M62.406,16.858c-3.826,1.106-7.475,2.768-11.304,3.865c-7.499,2.15-15.43,2.074-23.164,3.094
		c-7.734,1.02-15.775,3.427-20.919,9.292C0.335,40.73,0.404,52.787,5.523,61.536s14.385,14.45,24.094,17.363
		c8.026,2.408,16.637,3.127,24.841,1.421c8.204-1.706,15.971-5.923,21.39-12.315c3.786-4.467,6.344-9.84,8.463-15.299
		c2.704-6.966,4.784-14.507,3.439-21.857C85.421,18.117,74.016,13.5,62.406,16.858z"></path>
  <path fill="#fff" d="M72.286,61.072v11.03c0,0.763-0.618,1.381-1.381,1.381H17.659c-0.763,0-1.381-0.618-1.381-1.381v-11.03
						c0-0.763,0.618-1.381,1.381-1.381h53.246C71.668,59.691,72.286,60.309,72.286,61.072z"></path>
  <rect width="5.038" height="13.791" x="23.82" y="59.691" fill="#ff564c"></rect>
  <rect width="5.038" height="13.791" x="59.706" y="59.691" fill="#ff564c"></rect>
  <path fill="#5c9efe" d="M49.525,59.691c-0.538-2.882-3.061-5.064-6.1-5.064s-5.567,2.182-6.106,5.064H49.525z"></path>
  <g>
    <path fill="#fff" d="M58.5,40.753c-7.16,7.148-18.746,7.154-25.906,0c-4.553-4.553-6.204-10.91-4.954-16.782
							c0.708-3.341,2.359-6.529,4.954-9.124c1.989-1.983,4.317-3.418,6.803-4.304c6.444-2.288,13.911-0.861,19.103,4.304
							c3.143,3.156,4.91,7.154,5.286,11.267C64.264,31.348,62.497,36.748,58.5,40.753z"></path>
    <path fill="#84d189" d="M33.774,41.823l-0.007-0.007c0.851-1.855,2.245-3.388-0.295-6.458c-0.866-1.03-1.903-1.944-2.576-3.105
							c-1.717-3.027,0.293-5.634,3.579-4.864c2.638,0.646,4.806,3.192,7.584,2.576c1.113-0.24,2.04-1.01,3.098-1.45
							c3.34-1.412,6.991,0.833,6.615,3.043c-0.446,2.586-6.502,3.886-5.674,6.162c0.268,0.687,1.147,0.927,1.882,0.831
							c2.468-0.323,3.879-2.977,6.121-3.861c1.127-0.453,2.59-0.371,3.373,0.563c1.167,1.386,0.508,4.438-1.882,5.784
							c-1.443,0.817-3.243,0.859-4.671,1.69c-1.12,0.653-1.937,1.827-2.24,3.112C43.502,46.735,38.02,45.402,33.774,41.823z"></path>
    <path fill="#68bc6a" d="M43.737 32.37c-2.105.855-3.168 2.616-6.997.601-1.91-.997-4.02-2.518-6.228-1.581-.961-2.854 1.178-4.65 3.962-4.005 2.6.645 4.831 3.19 7.588 2.582 1.107-.242 2.034-1.012 3.098-1.454 3.41-1.429 6.982.881 6.618 3.046-.179.98-1.043 1.644-1.865 2.213C48.732 32.041 45.876 31.46 43.737 32.37zM56.583 40.284c-.318-1.864-2.23-2.416-3.899-1.739-2.233.869-3.665 3.534-6.123 3.857-.738.095-1.612-.148-1.886-.833-.169-.453-.011-.97.274-1.349.356-.475.928-.85 2.213-1.707.263.063.559.074.822.042 2.448-.322 3.876-2.973 6.123-3.868 1.117-.453 2.582-.369 3.372.569C58.616 36.622 57.917 38.991 56.583 40.284z"></path>
    <path fill="#5c9efe" d="M41.001,22.588c-0.914-1.559-1.085-3.531-0.447-5.221c0.243-0.655,0.891-1.805,0.254-2.624
							c-0.508-0.659-1.504-0.536-2.329-0.543c-0.817-0.014-2.686-0.495-3.579-1.305c4.809-3.449,10.923-4.287,16.35-2.487
							c0.475,5.313-4.599,6.81-6.052,10.593c-0.327,0.88-0.611,2.713-1.972,2.968C42.306,24.154,41.468,23.398,41.001,22.588z"></path>
    <path fill="#3f8fef" d="M51.082,12.642c-4.647-1.497-9.769-1.054-14.143,1.275c-0.748-0.221-1.539-0.569-2.034-1.022
							c4.806-3.446,10.918-4.289,16.345-2.487C51.314,11.156,51.261,11.915,51.082,12.642z"></path>
    <path fill="#febc00" d="M61.081,31.134c-0.742-0.172-1.408-0.852-1.353-1.614c0.055-0.749,0.721-1.298,1.051-1.978
							c0.33-0.687,0.302-1.532-0.076-2.191c-0.385-0.653-1.099-1.106-1.855-1.154c-0.639-0.041-1.264,0.172-1.896,0.24
							c-1.484,0.163-2.336-0.691-1.676-2.37c0.234-0.57,0.522-1.168,0.426-1.779c-0.096-0.721-0.687-1.243-1.168-1.8
							c-1.743-2.029-1.938-5,0.089-6.588c1.388,0.776,2.693,1.766,3.875,2.947c4.28,4.28,5.997,10.153,5.152,15.711
							c-0.117,0.069-0.234,0.124-0.35,0.185C62.62,31.086,61.823,31.319,61.081,31.134z"></path>
    <path fill="#e29c00" d="M63.654,30.557c-0.245,0.134-0.543,0.288-0.843,0.4c0.453-7.245-3.383-13.78-9.2-17.041
							c-0.137,0.105-0.263,0.221-0.379,0.348c0-0.466,0.444-1.619,1.391-2.371c1.391,0.78,2.698,1.77,3.878,2.951
							C62.78,19.123,64.497,25.004,63.654,30.557z"></path>
    <path fill="#525987" d="M70.905,58.941H50.091c-0.772-2.723-3.112-4.694-5.919-4.998v-2.811c6.766,0.392,12.87-2.053,17.368-6.281
				l1.29,1.299c0.29,0.292,0.764,0.297,1.061,0.003c0.294-0.292,0.296-0.767,0.004-1.061c-0.1-0.101-4.637-4.643-4.349-4.355
				c2.669-2.885,4.32-6.519,4.846-10.067c1.766-11.617-7.309-22.05-19.048-21.923c-4.849,0.049-9.384,1.944-12.738,5.051
				c-0.1-0.101-4.622-4.634-4.333-4.345c-0.292-0.294-0.767-0.294-1.061-0.003c-0.294,0.292-0.296,0.767-0.004,1.061l1.285,1.294
				C15.444,25.71,23.695,48.677,42.672,51v2.943c-2.807,0.307-5.146,2.277-5.918,4.998H17.659c-1.175,0-2.131,0.956-2.131,2.131
				v11.03c0,1.175,0.956,2.131,2.131,2.131h53.246c1.175,0,2.131-0.956,2.131-2.131v-11.03
				C73.036,59.897,72.08,58.941,70.905,58.941z M58.686,23.44c-1.296,0-3.552,1.04-2.715-1.09c0.299-0.718,0.596-1.39,0.475-2.163
				c-0.12-0.902-0.726-1.509-1.342-2.189c-1.273-1.481-1.709-3.696-0.384-5.164c5.88,3.618,9.127,10.217,8.211,17.252
				c-0.455,0.227-1.103,0.461-1.668,0.32c-0.004-0.001-0.008-0.002-0.013-0.003c-0.437-0.102-0.799-0.489-0.774-0.829
				c0.034-0.459,0.634-0.997,0.979-1.708C62.437,25.82,60.96,23.44,58.686,23.44z M50.527,10.966
				c0.037,4.768-4.832,5.809-6.27,10.498c-0.203,0.667-0.494,1.641-1.18,1.769c-0.514,0.107-1.092-0.436-1.427-1.02
				c-0.001-0.001-0.002-0.003-0.003-0.005c-0.796-1.357-0.946-3.111-0.391-4.581c0.269-0.724,1.07-2.156,0.145-3.343
				c-0.62-0.805-1.582-0.848-2.574-0.837c-0.1-0.012-1.039,0.108-2.551-0.572C40.416,10.299,45.704,9.523,50.527,10.966z
				 M34.897,13.825c1.095,0.706,2.707,1.11,3.577,1.125c1.251-0.015,1.566,0.023,1.743,0.253c0.338,0.435-0.142,1.304-0.363,1.898
				c-0.721,1.907-0.534,4.098,0.499,5.863c1.391,2.414,3.885,2.296,4.9,0.133c0.196-0.399,0.32-0.805,0.439-1.196
				c1.27-4.152,6.007-5.221,6.319-10.432c0.472,0.187,0.933,0.398,1.388,0.626c-0.397,0.509-0.698,1.094-0.852,1.73
				c-0.746,3.109,1.63,5.352,1.687,5.452c0.946,1.041,0.891,1.2,0.344,2.515c-0.903,2.299,0.518,3.602,2.455,3.39
				c0.617-0.067,1.254-0.267,1.768-0.238c1.093,0.069,1.793,1.247,1.303,2.271c-0.304,0.628-1.049,1.221-1.124,2.251
				c-0.108,1.501,1.477,2.934,3.64,2.344c-1.492,6.406-6.343,11.363-12.696,12.988c1.432-2.412,3.745-1.806,6.036-3.105
				c2.777-1.564,3.584-5.143,2.09-6.92c-1.066-1.273-2.939-1.296-4.223-0.779c-2.353,0.925-3.826,3.538-5.944,3.815
				c-0.429,0.06-0.971-0.064-1.079-0.345c-0.062-0.169,0.007-0.429,0.171-0.648c0.312-0.42,0.837-0.708,3.313-2.392
				c0.961-0.66,2.005-1.469,2.224-2.739c0.497-2.924-3.885-5.452-7.643-3.861c-1.055,0.439-2.005,1.201-2.973,1.409
				c-2.349,0.523-4.613-1.928-7.251-2.574c-3.931-0.925-6.447,2.359-4.398,5.97c1.264,2.181,4.182,3.943,3.901,6.31
				c-0.064,0.544-0.324,1.089-0.614,1.658C25.52,33.069,26.401,20.325,34.897,13.825z M34.704,41.609
				c0.418-0.814,0.829-1.591,0.935-2.494c0.389-3.282-2.84-5.077-4.091-7.232c-0.476-0.838-0.803-2.131-0.158-3.02
				c0.604-0.844,1.899-0.981,2.906-0.745c2.399,0.587,4.86,3.258,7.921,2.581c1.255-0.27,2.218-1.07,3.232-1.491
				c1.35-0.572,2.982-0.477,4.265,0.248c0.729,0.401,1.453,1.192,1.319,1.977c-0.119,0.692-0.853,1.247-1.59,1.752
				c-2.573,1.752-3.177,2.071-3.671,2.734c-1.281,1.711,0.052,3.679,2.306,3.378c2.838-0.371,4.14-3.057,6.304-3.909
				c0.827-0.332,1.958-0.319,2.519,0.35c0.843,1.001,0.324,3.521-1.679,4.649c-2.083,1.18-5.746,0.67-7.122,4.769
				C43.318,45.856,38.477,44.575,34.704,41.609z M23.646,27.797c0-5.6,2.08-10.88,5.89-14.95l2.01,2.01
				c-10.658,11.521-3.497,30.33,12.069,31.899c0.036,0.004,0.071,0.011,0.107,0.014c5.519,0.525,10.862-1.361,14.764-4.974
				l2.01,2.01c-4.07,3.81-9.35,5.9-14.95,5.9c0,0,0,0-0.01,0C33.57,49.706,23.646,40.043,23.646,27.797z M63.995,72.732h-3.539
				V60.441h3.539V72.732z M58.956,72.732H29.608V60.441c10.496,0,18.214,0,29.348,0V72.732z M24.57,60.441h3.538v12.291H24.57
				V60.441z M43.426,55.376c2.313,0,4.34,1.454,5.118,3.564H38.302C39.081,56.83,41.109,55.376,43.426,55.376z M17.028,72.101
				v-11.03c0-0.348,0.283-0.631,0.631-0.631h5.411v12.292h-5.411C17.312,72.732,17.028,72.449,17.028,72.101z M71.536,72.101
				c0,0.348-0.283,0.631-0.631,0.631h-5.41V60.441h5.41c0.348,0,0.631,0.283,0.631,0.631V72.101z"></path>
  </g>
  <g>
    <path fill="#febc00" d="M51.598,66.591c0,1.46-3.271,2.643-7.316,2.643c-4.037,0-7.316-1.183-7.316-2.643
						c0-1.46,3.279-2.651,7.316-2.651C48.328,63.94,51.598,65.131,51.598,66.591z"></path>
  </g>
</svg>